<svg width="64" height="64" viewBox="0 0 64 64" fill="none" xmlns="http://www.w3.org/2000/svg">
<rect width="64" height="64" fill="url(#paint0_linear_1584_2069)"/>
<path d="M20.8708 28.3665C20.9337 28.6366 21.1014 28.8653 21.3529 29.0108C21.5206 29.1147 21.7092 29.1562 21.8979 29.1562C21.9817 29.1562 22.0655 29.1562 22.1494 29.1355L30.2818 27.161C30.8477 27.0155 31.1831 26.4544 31.0573 25.914L30.3028 22.8796L45.5615 19.1593C46.1274 19.0138 46.4628 18.4526 46.337 17.9122L45.3309 13.8802C45.2681 13.61 45.1004 13.3814 44.8489 13.2359C44.6183 13.0904 44.3249 13.0488 44.0524 13.1112L28.7936 16.8315L28.0391 13.7971C27.9762 13.5269 27.8085 13.2982 27.557 13.1528C27.3265 13.0073 27.033 12.9657 26.7605 13.0281L18.6281 15.0025C18.0622 15.148 17.7269 15.7092 17.8526 16.2495L20.8499 28.3665H20.8708ZM43.5494 15.3558L44.0524 17.3719L29.7997 20.8427L29.2967 18.8267L43.5494 15.3558ZM26.2575 15.2727L28.7517 25.3736L22.6524 26.87L20.1582 16.7691L26.2575 15.2727Z" fill="white"/>
<path d="M41.8308 33.4793V31.4009H14.583V38.5298H17.727C21.7722 38.5298 25.0629 41.7928 25.0629 45.8041V51H27.1589V45.8041C27.1589 40.6497 22.925 36.4514 17.727 36.4514H16.679V33.4793H39.7348V51H41.8308V42.5618L44.9119 41.9175C48.5589 41.1485 51.4513 38.3427 52.2897 34.7471L52.5832 33.4793H41.8308ZM44.4717 39.9015L41.8308 40.4626V35.5785H49.8165C48.8523 37.7608 46.8821 39.4027 44.4717 39.9015Z" fill="white"/>
<defs>
<linearGradient id="paint0_linear_1584_2069" x1="32" y1="32" x2="64" y2="5.96047e-07" gradientUnits="userSpaceOnUse">
<stop stop-color="#071C26"/>
<stop offset="1" stop-color="#EE630D"/>
</linearGradient>
</defs>
</svg>
